<svg width="16" height="14" viewBox="0 0 16 14" fill="none" xmlns="http://www.w3.org/2000/svg">
<path d="M2 7.64814C2 11.7963 5.52593 12.8333 7.28887 12.8333C8.1916 12.8333 9.49873 12.6252 10.6667 12.0223M12.4805 10.5C13.0014 9.77299 13.3333 8.83867 13.3333 7.64814C13.3333 5.00749 11.4435 3.12157 9.73487 2.04031C8.96253 1.55158 8 2.08833 8 2.92233V3.11112C8 3.9522 7.59587 5.48745 6.47288 6.12599C5.89955 6.45202 5.28035 5.96406 5.21067 5.3689L5.15345 4.88016C5.08693 4.31198 4.42561 3.96707 3.90664 4.31348C3.45863 4.61252 3.00093 5.0195 2.64629 5.54167" stroke="#EE5615" stroke-width="1.5" stroke-linecap="round"/>
<path d="M5.33337 10.7593C5.33337 12.4185 6.99264 12.8333 7.82224 12.8333C8.54817 12.8333 10 12.4185 10 10.7593C10 10.117 9.60717 9.68345 9.22697 9.43326C8.96164 9.25867 8.58857 9.41547 8.49731 9.69477C8.37837 10.0588 7.94857 10.2877 7.72964 9.96094C7.52944 9.66222 7.52944 9.21416 7.52944 8.94448C7.52944 8.57313 7.10264 8.33274 6.75931 8.55103C6.07103 8.98864 5.33337 9.73088 5.33337 10.7593Z" stroke="#EE5615" stroke-width="1.5"/>
</svg>
